<?xml version="1.0" encoding="utf-8"?>
<!-- Generator: Adobe Illustrator 18.1.1, SVG Export Plug-In . SVG Version: 6.00 Build 0)  -->
<svg version="1.1" id="Layer_1" xmlns="http://www.w3.org/2000/svg" xmlns:xlink="http://www.w3.org/1999/xlink" x="0px" y="0px"
	 viewBox="0 0 230 49" enable-background="new 0 0 230 49" xml:space="preserve">
<g>
	<g>
		
			<path fill="#5787AA" stroke="#5687AA" stroke-width="0.5" stroke-linecap="round" stroke-linejoin="round" stroke-miterlimit="10" d="
			M25,48.6c0,0,12.8-7.1,14.4-11.2c1.1,0.7,3.5,3.4,4.8,6.6c0-6-1.2-12.4-1.1-14.6c0.5-2.5,3.9-7.8,3.9-15.5
			c-1.5,5.6-5.3,10-6.9,10.8c-1.6-1.4-7.1-5.3-15.1-5.3c8,4.1,11,7.1,11,10.1S35,38.4,25,48.6z"/>
		
			<ellipse transform="matrix(0.9685 -0.249 0.249 0.9685 -3.0796 10.2581)" fill="#5687AA" stroke="#5687AA" stroke-width="0.5" stroke-linecap="round" stroke-linejoin="round" stroke-miterlimit="10" cx="39" cy="17.3" rx="2.1" ry="3.5"/>
		
			<path fill="#84A6BA" stroke="#84A6BA" stroke-width="0.5" stroke-linecap="round" stroke-linejoin="round" stroke-miterlimit="10" d="
			M40.2,10.2c0,0-11.5-4.3-15-3.1C25.1,6,25.5,3,26.8,0.4C22.9,3.7,19.5,8,18,9.1c-1.9,1-7.1,1.7-12.1,5.9c4.4-2.1,9.3-2,10.7-1.5
			c0,1.8,0.4,7.5,4.8,12.6c-1.7-7.4-1.4-10.9,0.5-12.6S28.3,9.4,40.2,10.2z"/>
		
			<ellipse transform="matrix(-0.8165 -0.5773 0.5773 -0.8165 12.267 40.4843)" fill="#84A6BA" stroke="#84A6BA" stroke-width="0.5" stroke-linecap="round" stroke-linejoin="round" stroke-miterlimit="10" cx="12.6" cy="18.3" rx="1.8" ry="2.9"/>
		
			<path fill="#84A6BA" stroke="#84A6BA" stroke-width="0.5" stroke-linecap="round" stroke-linejoin="round" stroke-miterlimit="10" d="
			M5.2,17.7c0,0-0.1,12.3,2.2,15.2c-1,0.5-4,1.1-6.8,0.8c4.4,2.5,9.6,4.3,11.1,5.3c1.6,1.4,4.1,6.1,9.7,9.3c-3.5-3.5-5.1-8.1-5-9.6
			c1.7-0.6,6.9-3,10.2-8.8c-6.3,4.1-9.8,5.1-12,3.8S8.5,29.2,5.2,17.7z"/>
		
			<ellipse transform="matrix(-0.2634 0.9647 -0.9647 -0.2634 67.6172 30.1992)" fill="#84A6BA" stroke="#84A6BA" stroke-width="0.5" stroke-linecap="round" stroke-linejoin="round" stroke-miterlimit="10" cx="22.3" cy="40.9" rx="1.8" ry="2.9"/>
	</g>
	<g>
		<path fill="#AA1E38" d="M69.8,6c0-0.6-0.3-1.2-0.7-1.6c-0.9-0.9-2.5-0.9-3.6-0.9c-2.8,0-7.1,0.8-7.1,8.3c0,4.8,2.1,8.1,7.4,8.1
			c1.2,0,2.5-0.1,3.3-1.1c0.4-0.5,0.6-1.1,0.6-1.7h0.5c-0.1,0.8-0.1,1.7-0.1,3v0.4c-1.3,0.4-3.5,0.6-4.9,0.6c-3.5,0-6.2-1.1-7.9-3.2
			c-1.1-1.4-1.7-3.3-1.7-5.7c0-4.8,2.5-7.9,6-9.2c1.5-0.5,3.2-0.6,4.2-0.6c2.2,0,4.1,0.3,4.4,0.3c-0.1,0.5-0.1,1.1-0.1,1.7
			c0,0.7,0,1.3,0.1,1.7H69.8z"/>
		<path fill="#AA1E38" d="M77.7,3.5c-0.5,0.5-0.5,1.3-0.5,3.7V17c0,2.2,0.1,2.6,0.6,3.1c0.2,0.2,0.7,0.4,1.2,0.4V21
			c-1.1-0.1-2.1-0.1-3.1-0.1s-1.9,0-3.1,0.1v-0.4c0.3,0,1-0.1,1.4-0.6c0.5-0.5,0.5-1.3,0.5-3.7V6.4c0-2.2-0.1-2.6-0.6-3.1
			c-0.2-0.2-0.7-0.4-1.2-0.4V2.5C74,2.5,75,2.6,76,2.6s1.9,0,3.1-0.1v0.4C78.8,2.9,78.2,3,77.7,3.5z"/>
		<path fill="#AA1E38" d="M93.9,6c0-0.9-0.3-1.5-0.7-1.8c-0.6-0.5-1.4-0.5-2.5-0.5h-2.1v13.4c0,1.8,0.1,2.3,0.4,2.7
			c0.4,0.7,1.8,0.8,2,0.8V21c-1.2-0.1-2.5-0.1-3.8-0.1c-1,0-2.4,0-3.5,0.1v-0.4c0.4,0,1.5-0.2,1.9-0.6c0.5-0.5,0.5-1.3,0.5-3.7V3.6
			h-1.7c-1.3,0-2.3,0-2.9,0.6c-0.3,0.3-0.6,1-0.6,1.8h-0.5c0.1-1.3,0.1-3.4,0.1-3.4h13.8c0,0,0,2.1,0.1,3.4H93.9z"/>
		<path fill="#AA1E38" d="M100.4,3.5c-0.5,0.5-0.5,1.3-0.5,3.7V17c0,2.2,0.1,2.6,0.6,3.1c0.2,0.2,0.7,0.4,1.2,0.4V21
			c-1.1-0.1-2.1-0.1-3.1-0.1c-1,0-1.9,0-3.1,0.1v-0.4c0.3,0,1-0.1,1.4-0.6c0.5-0.5,0.5-1.3,0.5-3.7V6.4c0-2.2-0.1-2.6-0.6-3.1
			c-0.2-0.2-0.7-0.4-1.2-0.4V2.5c1.1,0.1,2.1,0.1,3.1,0.1c1,0,1.9,0,3.1-0.1v0.4C101.5,2.9,100.8,3,100.4,3.5z"/>
		<path fill="#AA1E38" d="M107,19.8h6.6c1.2,0,2.1,0,2.6-0.6c0.4-0.4,0.7-1.1,0.7-2.1h0.5c-0.1,1.3-0.1,3.8-0.1,3.8h-13.5v-0.7
			l10.6-16.5h-6c-1.2,0-2,0-2.5,0.6c-0.4,0.4-0.6,0.8-0.7,1.7h-0.5c0.1-1.3,0.1-3.4,0.1-3.4h12.7v0.6L107,19.8z"/>
		<path fill="#AA1E38" d="M131.2,20.9h-6.7c-1.6,0-3.2,0-4.8,0.1v-0.4c0.4,0,1-0.1,1.4-0.6c0.5-0.5,0.5-1.3,0.5-3.7V6.5
			c0-2.1,0-2.5-0.5-3c-0.3-0.3-0.7-0.5-1.3-0.5V2.5c1.5,0.1,2.5,0.1,4.1,0.1h7.2c0,0,0,2.1,0.1,3.4h-0.5c0-0.9-0.3-1.5-0.7-1.8
			c-0.6-0.5-1.4-0.5-2.5-0.5h-3.4v7.1h3.1c1.2,0,1.8-0.1,2.2-0.5c0.5-0.5,0.5-1.1,0.5-1.6h0.4c0,0.6-0.1,0.9-0.1,2.7
			c0,1.7,0.1,2,0.1,2.6h-0.5c0-0.5-0.1-1.1-0.5-1.6c-0.4-0.4-1.1-0.5-2.2-0.5h-3.1v6.5c0,1.3,0.3,1.4,1.8,1.4h1.7c1.2,0,2,0,2.5-0.6
			c0.4-0.4,0.6-1,0.7-2h0.5C131.1,18.6,131.2,20.9,131.2,20.9z"/>
		<path fill="#AA1E38" d="M150.8,3.5c-0.5,0.5-0.5,1.3-0.5,3.7V21h-1.2L138,6.7c-0.5-0.6-0.6-1-0.6-1V17c0,2.2,0.1,2.6,0.6,3.1
			c0.2,0.2,0.7,0.4,1.2,0.4V21c-1.1-0.1-1.6-0.1-2.5-0.1c-1,0-1.4,0-2.6,0.1v-0.4c0.4,0,1-0.1,1.4-0.6c0.5-0.5,0.5-1.3,0.5-3.7V6.4
			c0-2.2-0.1-2.6-0.6-3.1c-0.2-0.2-0.7-0.4-1.2-0.4V2.5c1.1,0.1,1.3,0.1,2.3,0.1c0.4,0,0.8,0,1.6-0.1l9.9,13
			c0.7,0.9,0.9,1.4,0.9,1.4V6.4c0-2.2-0.1-2.6-0.6-3.1C148,3.2,147.6,3,147,2.9V2.5c1.1,0.1,1.6,0.1,2.5,0.1c1,0,1.4,0,2.6-0.1v0.4
			C151.8,2.9,151.2,3,150.8,3.5z"/>
		<path fill="#AA1E38" d="M158.8,21.1c-1.7,0-3-0.2-4.3-0.6v-0.7c0-1.3-0.1-1.8-0.1-2.6h0.5c0,0.6,0.3,1.3,0.7,1.8
			c0.6,0.7,1.8,1.1,3.1,1.1c2,0,4-0.5,4-3.3c0-2-1.3-2.8-3-3.9l-1.6-1.1c-2.1-1.4-3.2-2.5-3.2-4.8c0-0.9,0.3-4.6,5.7-4.6
			c2.3,0,4.1,0.3,4.1,0.3s-0.1,0.7-0.1,1.5c0,0.7,0,1.2,0.1,1.8h-0.5c-0.1-0.8-0.3-1.4-0.7-1.8c-0.6-0.6-1.6-0.9-2.8-0.9
			c-2.9,0-3.6,1.4-3.6,2.9c0,1.7,0.9,2.3,2.7,3.5l1.7,1.1c1.8,1.2,3.5,2.2,3.5,5C165,21,159.9,21.1,158.8,21.1z"/>
	</g>
	<g>
		<path fill="#5786A9" d="M59,29.8c-0.4,0.4-0.4,1-0.4,2.8v7.3c0,1.6,0.1,2,0.4,2.3c0.2,0.1,0.5,0.3,0.9,0.3v0.3
			c-0.8,0-1.6-0.1-2.3-0.1s-1.4,0-2.4,0.1v-0.3c0.3,0,0.7-0.1,1-0.5c0.4-0.4,0.4-1,0.4-2.8v-7.3c0-1.6-0.1-2-0.4-2.3
			c-0.2-0.1-0.5-0.3-0.9-0.3V29c0.8,0,1.6,0.1,2.3,0.1s1.4,0,2.4-0.1v0.3C59.8,29.3,59.3,29.4,59,29.8z"/>
		<path fill="#5786A9" d="M70.4,42.8c-0.7,0-1.4,0-2.3,0.1v-0.3c0.4-0.1,0.7-0.2,0.9-0.4c0.4-0.4,0.4-1.1,0.4-2c0-0.4,0-1.2,0-1.7
			c0-0.8,0-1.5-0.1-2.3C69.3,35,68.8,34,67.1,34c-1,0-1.6,0.3-2.1,0.5v5.4c0,1.7,0.1,2,0.4,2.3c0.2,0.2,0.6,0.3,0.9,0.3v0.3
			c-0.8,0-1.5-0.1-2.2-0.1s-1.4,0-2.3,0.1v-0.3c0.3,0,0.7-0.1,1-0.5c0.4-0.4,0.4-1,0.4-2.8v-2.9c0-1.3,0-1.8-0.2-2.1
			c-0.3-0.4-0.9-0.4-1.1-0.4v-0.4c0.3,0,1.2,0,2-0.2c0.4-0.1,0.8-0.1,1-0.3l0.1,0.1v1.1c0.2-0.2,1.3-1.2,3.1-1.2
			c1.8,0,2.8,0.9,3.1,2.2c0.1,0.3,0.1,1.2,0.1,1.7v2.9c0,1.7,0.1,2,0.4,2.3c0.2,0.2,0.6,0.3,0.9,0.3v0.3
			C71.9,42.8,71.1,42.8,70.4,42.8z"/>
		<path fill="#5786A9" d="M81,29.5h-0.2c-0.4-0.8-0.8-1.3-1.8-1.3c-0.4,0-0.8,0.1-1.2,0.4c-0.5,0.5-0.6,1.2-0.6,2.5v2.1h2.2v0.8
			h-2.2v5.8c0,1.3,0,1.8,0.3,2.1c0.3,0.5,1.2,0.5,1.6,0.5v0.3c-0.8,0-1.8-0.1-2.5-0.1s-1.6,0-2.5,0.1v-0.3c0.3,0,0.7-0.1,1-0.5
			c0.4-0.4,0.4-1,0.4-2.8v-5.2h-1.3v-0.2c0.6-0.3,1-0.5,1.3-0.7c0-0.8,0-2.1,0.1-2.7c0.2-0.9,0.7-2.9,3.8-2.9c1,0,1.8,0.3,2.3,0.7
			v0.2L81,29.5z"/>
		<path fill="#5786A9" d="M85.2,43c-3.1,0-4.7-2-4.7-4.9c0-2.3,1.2-5.1,4.9-5.1c3.1,0,4.7,2,4.7,4.9C90,40.2,88.8,43,85.2,43z
			 M85.3,33.8c-0.2,0-1,0-1.6,0.5c-0.7,0.5-1.3,1.6-1.3,3.8c0,1.2,0.3,4.2,2.8,4.2c0.2,0,1,0,1.6-0.5c0.7-0.5,1.3-1.6,1.3-3.8
			C88.1,36.8,87.7,33.8,85.3,33.8z"/>
		<path fill="#5786A9" d="M98.3,35.2h-0.2c-0.1-0.2-0.6-0.9-1.8-0.9c-0.5,0-1,0.2-1.3,0.4v5.1c0,1.3,0,1.8,0.3,2.1
			c0.3,0.5,1.2,0.5,1.6,0.5v0.3c-0.8,0-1.8-0.1-2.5-0.1c-0.7,0-1.6,0-2.5,0.1v-0.3c0.3,0,0.7-0.1,1-0.5c0.4-0.4,0.4-1,0.4-2.8v-2.9
			c0-1.3,0-1.8-0.2-2.1c-0.3-0.4-0.9-0.4-1.1-0.4v-0.4c0.3,0,1.2,0,2-0.2c0.4-0.1,0.8-0.1,1-0.3l0.1,0.1v1.3c0.2-0.3,1-1.3,2.5-1.3
			c0.9,0,1.3,0.3,1.5,0.5v0.2L98.3,35.2z"/>
		<path fill="#5786A9" d="M114.7,42.8c-0.7,0-1.4,0-2.3,0.1v-0.3c0.4-0.1,0.8-0.2,1-0.4c0.4-0.4,0.4-1.1,0.4-2c0-0.4,0-1.2,0-1.8
			c0-2,0-2.8-0.5-3.5c-0.2-0.3-0.7-0.8-1.9-0.8c-1,0-1.7,0.3-2.3,0.8c0.1,0.2,0.1,0.4,0.1,0.5c0.1,0.4,0.1,1.1,0.1,1.7v2.9
			c0,1.7,0.1,2,0.4,2.3c0.2,0.2,0.6,0.3,0.9,0.3v0.3c-0.8,0-1.5-0.1-2.2-0.1c-0.7,0-1.4,0-2.3,0.1v-0.3c0.4-0.1,0.7-0.2,0.9-0.4
			c0.4-0.4,0.4-1.1,0.4-2c0-0.4,0-1.2,0-1.8c0-0.9,0-1.7-0.1-2.5c-0.1-0.9-0.7-1.8-2.2-1.8c-0.3,0-1.2,0-2,0.5v5.4
			c0,1.7,0.1,2,0.4,2.3c0.2,0.2,0.6,0.3,0.9,0.3v0.3c-0.8,0-1.5-0.1-2.2-0.1c-0.7,0-1.4,0-2.3,0.1v-0.3c0.3,0,0.7-0.1,1-0.5
			c0.4-0.4,0.4-1,0.4-2.8v-2.9c0-1.3,0-1.8-0.2-2.1c-0.3-0.4-0.9-0.4-1.1-0.4v-0.4c0.3,0,1.2,0,2-0.2c0.4-0.1,0.8-0.1,1-0.3l0.1,0.1
			v1.1c0.2-0.2,1.4-1.2,3.1-1.2c1.6,0,2.4,0.7,2.7,1.4c0.5-0.5,1.7-1.4,3.4-1.4c1.8,0,2.8,0.9,3.1,2.2c0.1,0.3,0.1,1.2,0.1,1.7v3
			c0,1.7,0.1,2,0.4,2.3c0.2,0.2,0.6,0.3,0.9,0.3v0.3C116.2,42.8,115.5,42.8,114.7,42.8z"/>
		<path fill="#5786A9" d="M125.2,43c-0.8,0-1.4-0.5-1.4-1.3c-0.3,0.4-1.1,1.3-2.6,1.3c-2.6,0-2.7-2.1-2.7-2.5c0-0.5,0.1-1.9,1.8-2.4
			c0.8-0.2,2.2-0.3,3.5-0.3V37c0-0.6,0-1.4-0.1-1.8c-0.3-0.9-1-1.2-1.9-1.2c-1.5,0-2.1,1.1-2.1,1.2l-0.3-0.2c0.2-0.7,1.1-2,3.2-2
			c1.5,0,2.2,0.5,2.7,1.2c0.4,0.6,0.4,1.5,0.4,2.5c0,1.4-0.1,3.2-0.1,3.9c0,0.6,0,1.3,0.8,1.3c0.2,0,0.3,0,0.5-0.1l0.2,0.2
			C126.5,42.6,126,43,125.2,43z M123.7,38.4c-1.4,0.1-2,0.2-2.5,0.4c-0.8,0.3-1,0.9-1,1.6c0,0.3,0.1,1.7,1.7,1.7
			c1.1,0,1.7-0.5,1.8-0.6V38.4z"/>
		<path fill="#5786A9" d="M132.1,43c-1.5,0-2.2-0.5-2.6-1.6c-0.1-0.5-0.1-1.4-0.1-2c0-1.9,0-3.4,0-5.3h-1.3v-0.2
			c0.6-0.3,0.9-0.4,1.2-0.7c0.7-0.6,1.7-2.2,1.7-2.2h0.3v2.2h3.4v0.8h-3.4v5.5c0,1.5,0.2,2.5,2,2.5c0.8,0,1.3-0.3,1.3-0.3l0.1,0.3
			C134.7,42.1,133.9,43,132.1,43z"/>
		<path fill="#5786A9" d="M138.2,42.8c-0.6,0-1.5,0-2.4,0.1v-0.3c0.4,0,0.8-0.1,1.1-0.5c0.4-0.4,0.4-1,0.4-2.8v-2.9
			c0-1.3,0-1.8-0.2-2.1c-0.3-0.4-0.9-0.4-1.1-0.4v-0.4c0.3,0,1.3,0,2.1-0.2c0.4-0.1,0.8-0.1,1-0.3l0.1,0.1c-0.1,0.7-0.1,2.3-0.1,3.9
			v2.9c0,1.3,0,1.8,0.3,2.1c0.1,0.2,0.5,0.5,1.2,0.5v0.3C139.7,42.8,138.9,42.8,138.2,42.8z M138.1,30.9c-0.7,0-1.1-0.4-1.1-1
			c0-0.7,0.5-1.1,1.2-1.1c0.7,0,1.1,0.4,1.1,1C139.2,30.5,138.8,30.9,138.1,30.9z"/>
		<path fill="#5786A9" d="M146.8,43c-3.1,0-4.7-2-4.7-4.9c0-2.3,1.2-5.1,4.9-5.1c3.1,0,4.7,2,4.7,4.9C151.7,40.2,150.5,43,146.8,43z
			 M146.9,33.8c-0.2,0-1,0-1.6,0.5c-0.7,0.5-1.3,1.6-1.3,3.8c0,1.2,0.3,4.2,2.8,4.2c0.2,0,1,0,1.6-0.5c0.7-0.5,1.3-1.6,1.3-3.8
			C149.7,36.8,149.4,33.8,146.9,33.8z"/>
		<path fill="#5786A9" d="M162.1,42.8c-0.7,0-1.4,0-2.3,0.1v-0.3c0.4-0.1,0.7-0.2,0.9-0.4c0.4-0.4,0.4-1.1,0.4-2c0-0.4,0-1.2,0-1.7
			c0-0.8,0-1.5-0.1-2.3c-0.1-1.1-0.7-2.1-2.3-2.1c-1,0-1.6,0.3-2.1,0.5v5.4c0,1.7,0.1,2,0.4,2.3c0.2,0.2,0.6,0.3,0.9,0.3v0.3
			c-0.8,0-1.5-0.1-2.2-0.1s-1.4,0-2.3,0.1v-0.3c0.3,0,0.7-0.1,1-0.5c0.4-0.4,0.4-1,0.4-2.8v-2.9c0-1.3,0-1.8-0.2-2.1
			c-0.3-0.4-0.9-0.4-1.1-0.4v-0.4c0.3,0,1.2,0,2-0.2c0.4-0.1,0.8-0.1,1-0.3l0.1,0.1v1.1c0.2-0.2,1.3-1.2,3.1-1.2
			c1.8,0,2.8,0.9,3.1,2.2c0.1,0.3,0.1,1.2,0.1,1.7v2.9c0,1.7,0.1,2,0.4,2.3c0.2,0.2,0.6,0.3,0.9,0.3v0.3
			C163.5,42.8,162.8,42.8,162.1,42.8z"/>
		<path fill="#5786A9" d="M180.5,31.7c0-0.5-0.3-0.9-0.5-1.2c-0.7-0.7-1.9-0.7-2.7-0.7c-2.1,0-5.3,0.6-5.3,6.2
			c0,3.6,1.6,6.1,5.5,6.1c0.9,0,1.9-0.1,2.5-0.8c0.3-0.4,0.5-0.8,0.5-1.3h0.4c0,0.6-0.1,1.3-0.1,2.2v0.3c-0.9,0.3-2.6,0.5-3.7,0.5
			c-2.6,0-4.7-0.8-5.9-2.4c-0.8-1-1.3-2.5-1.3-4.3c0-3.6,1.8-5.9,4.5-6.9c1.1-0.4,2.4-0.5,3.2-0.5c1.6,0,3.1,0.2,3.3,0.2
			c0,0.4,0,0.8,0,1.3c0,0.5,0,1,0,1.3H180.5z"/>
		<path fill="#5786A9" d="M184.6,37.4L184.6,37.4c0,0.5,0,1,0.1,1.5c0.5,2.8,2.4,3,3.5,3c0.8,0,1.6-0.1,2.3-0.5l0.2,0.3
			c-0.7,0.8-2.1,1.3-3.4,1.3c-3.2,0-4.5-2-4.5-4.7c0-1.7,0.7-5.2,4.5-5.2c1.5,0,2.5,0.7,3,1.4c0.5,0.8,0.6,1.7,0.6,2.6v0.3H184.6z
			 M189,36.5c0-0.8,0-2.8-2.2-2.8c-2,0-2.2,2.2-2.2,2.9h4.3V36.5z"/>
		<path fill="#5786A9" d="M201.2,42.8c-0.7,0-1.4,0-2.3,0.1v-0.3c0.4-0.1,0.7-0.2,0.9-0.4c0.4-0.4,0.4-1.1,0.4-2c0-0.4,0-1.2,0-1.7
			c0-0.8,0-1.5-0.1-2.3c-0.1-1.1-0.7-2.1-2.3-2.1c-1,0-1.6,0.3-2.1,0.5v5.4c0,1.7,0.1,2,0.4,2.3c0.2,0.2,0.6,0.3,0.9,0.3v0.3
			c-0.8,0-1.5-0.1-2.2-0.1s-1.4,0-2.3,0.1v-0.3c0.3,0,0.7-0.1,1-0.5c0.4-0.4,0.4-1,0.4-2.8v-2.9c0-1.3,0-1.8-0.2-2.1
			c-0.3-0.4-0.9-0.4-1.1-0.4v-0.4c0.3,0,1.2,0,2-0.2c0.4-0.1,0.8-0.1,1-0.3l0.1,0.1v1.1c0.2-0.2,1.3-1.2,3.1-1.2
			c1.8,0,2.8,0.9,3.1,2.2c0.1,0.3,0.1,1.2,0.1,1.7v2.9c0,1.7,0.1,2,0.4,2.3c0.2,0.2,0.6,0.3,0.9,0.3v0.3
			C202.7,42.8,202,42.8,201.2,42.8z"/>
		<path fill="#5786A9" d="M208.8,43c-1.5,0-2.2-0.5-2.6-1.6c-0.1-0.5-0.1-1.4-0.1-2c0-1.9,0-3.4,0-5.3h-1.3v-0.2
			c0.6-0.3,0.9-0.4,1.2-0.7c0.7-0.6,1.7-2.2,1.7-2.2h0.3v2.2h3.4v0.8h-3.4v5.5c0,1.5,0.2,2.5,2,2.5c0.8,0,1.3-0.3,1.3-0.3l0.1,0.3
			C211.3,42.1,210.5,43,208.8,43z"/>
		<path fill="#5786A9" d="M214.2,37.4L214.2,37.4c0,0.5,0,1,0.1,1.5c0.5,2.8,2.4,3,3.5,3c0.8,0,1.6-0.1,2.3-0.5l0.2,0.3
			c-0.7,0.8-2.1,1.3-3.4,1.3c-3.2,0-4.5-2-4.5-4.7c0-1.7,0.7-5.2,4.5-5.2c1.5,0,2.5,0.7,3,1.4c0.5,0.8,0.6,1.7,0.6,2.6v0.3H214.2z
			 M218.5,36.5c0-0.8,0-2.8-2.2-2.8c-2,0-2.2,2.2-2.2,2.9h4.3V36.5z"/>
		<path fill="#5786A9" d="M228.6,35.2h-0.2c-0.1-0.2-0.6-0.9-1.8-0.9c-0.5,0-1,0.2-1.3,0.4v5.1c0,1.3,0,1.8,0.3,2.1
			c0.3,0.5,1.2,0.5,1.6,0.5v0.3c-0.8,0-1.8-0.1-2.5-0.1c-0.7,0-1.6,0-2.5,0.1v-0.3c0.3,0,0.7-0.1,1-0.5c0.4-0.4,0.4-1,0.4-2.8v-2.9
			c0-1.3,0-1.8-0.2-2.1c-0.3-0.4-0.9-0.4-1.1-0.4v-0.4c0.3,0,1.2,0,2-0.2c0.4-0.1,0.8-0.1,1-0.3l0.1,0.1v1.3c0.2-0.3,1-1.3,2.5-1.3
			c0.9,0,1.3,0.3,1.5,0.5v0.2L228.6,35.2z"/>
	</g>
</g>
</svg>
